<svg width="675" height="382" viewBox="0 0 675 382" fill="none" xmlns="http://www.w3.org/2000/svg">
<path d="M374.424 360.237C357.868 359.584 344.434 346.102 344.434 329.533V249.114C344.434 224.722 314.136 213.438 298.181 231.888C294.165 236.532 291.897 242.433 291.771 248.571L290.388 315.664C290.276 321.069 291.628 326.404 294.299 331.105L337.558 407.224C342.89 416.605 352.849 422.401 363.64 422.401H469.483C589.723 418.063 676.415 314.929 674.982 190.713C673.495 61.2021 592.968 -33.5233 468.872 -34.819C444.212 -35.0995 396.12 -35.1 354.049 -35.0297C337.353 -35.0019 322.59 -2.88644 332.543 10.5184C335.758 14.8476 343.377 21.8939 348.77 21.8939H456.366C537.114 28.5413 594.45 71.6449 612.021 144.992C623.228 220.839 612.338 264.213 549.604 329.877C547.815 331.749 545.74 333.414 543.497 334.707C486.924 367.336 430.652 362.455 374.424 360.237Z" fill="white"/>
<path d="M32.4194 425C48.988 425 62.4194 411.569 62.4194 395V291.999C62.4194 275.431 75.8509 261.999 92.4194 261.999H149.411C160.157 261.999 170.082 267.747 175.431 277.067L251.147 409.006C256.496 418.326 266.421 424.074 277.167 424.074H286.935C309.618 424.074 324.089 399.915 313.286 379.97C296.943 349.802 274.996 309.518 256.765 276.872C248.557 262.173 254.124 244.052 269.051 236.267C270.615 235.452 272.058 234.679 273.331 233.965C335.063 199.421 360.978 133.334 344.945 67.9479C327.985 -1.30748 256.962 -41.2822 184.814 -41.899C142.114 -42.2355 99.3601 -41.6186 56.6603 -41.6747C40.3066 -41.6747 27.0492 -28.4173 27.0492 -12.0636L27.0492 16.314C27.0492 25.9607 34.8693 33.7808 44.516 33.7808C86.2887 32.5471 148.973 33.3322 190.8 33.7808C247.024 34.3977 279.157 53.208 279.484 106.481C279.812 157.456 237.439 191.25 182.033 191.699C130.226 192.147 78.4192 192.876 26.6123 191.923C12.1024 191.923 0.109007 203.686 0.109007 218.195L0 225.533C1.25427 281.611 2.12675 337.8 0.109007 393.821L0.105252 394.895C0.0471826 411.505 13.4956 425 30.1051 425H32.4194Z" fill="white"/>
</svg>
