<svg width="20" height="20" viewBox="0 0 20 20" fill="none" xmlns="http://www.w3.org/2000/svg">
<path d="M19.4668 9.70383C18.232 8.3136 16.6648 7.57872 15.0977 7.63057C16.0703 6.57259 16.5641 5.02988 16.4667 3.33145C16.4637 3.25522 16.3996 3.19724 16.3265 3.19125C14.5429 3.08753 12.9545 3.63336 11.8932 4.69748C12.0914 2.40781 10.5426 0.749238 9.83223 0.115066C9.77424 0.0632071 9.69203 0.0632071 9.63405 0.115066C8.92054 0.752339 7.36873 2.41087 7.57306 4.70967C6.50594 3.63343 4.92052 3.08463 3.1248 3.19136C3.04858 3.19748 2.99059 3.25846 2.98461 3.33155C2.88701 5.02667 3.38096 6.56952 4.35362 7.62754C2.85965 7.63666 1.35343 8.3775 0.17366 9.70379C0.121801 9.76178 0.121801 9.84398 0.17366 9.90197C0.810933 10.6184 2.46647 12.1582 4.74701 11.9661C3.00914 13.4418 2.92994 15.6858 2.98478 16.637C2.99091 16.7132 3.05188 16.7742 3.12497 16.7772C4.9056 16.8809 6.49403 16.3381 7.55825 15.2741C7.53389 16.8047 8.27176 18.3412 9.6345 19.5516C9.65859 19.5759 9.69521 19.5881 9.72869 19.5881C9.7653 19.5881 9.80192 19.5759 9.82628 19.5515C10.5398 18.9142 12.0795 17.2648 11.8904 14.9872C13.3661 16.7526 15.6282 16.8348 16.5857 16.7769C16.6619 16.7739 16.7229 16.7098 16.7259 16.6367C16.7839 15.6916 16.7045 13.4477 14.9728 11.969C17.2167 12.1153 18.8357 10.6031 19.4608 9.90183C19.5156 9.84385 19.5156 9.75837 19.4669 9.70352L19.4668 9.70383ZM13.1161 9.83191C13.1161 11.6521 11.6373 13.1309 9.81712 13.1309C7.99691 13.1309 6.51817 11.6521 6.51817 9.83191C6.51817 8.01169 7.99691 6.53296 9.81712 6.53296C11.6373 6.53296 13.1161 8.01169 13.1161 9.83191Z" fill="#E5EB0B"/>
<path d="M12.2702 9.83234C12.2702 11.1895 11.17 12.2897 9.81281 12.2897C8.45565 12.2897 7.35547 11.1895 7.35547 9.83234C7.35547 8.47518 8.45565 7.375 9.81281 7.375C11.17 7.375 12.2702 8.47518 12.2702 9.83234Z" fill="#E5EB0B"/>
</svg>
