<svg width="18" height="21" viewBox="0 0 18 21" fill="none" xmlns="http://www.w3.org/2000/svg">
<path d="M17.3884 4.81681C17.3477 4.61361 17.1445 4.45096 16.9413 4.45096C16.6974 4.49166 16.4128 4.49166 16.1689 4.49166C12.0225 4.49166 9.13648 1.11773 9.09571 1.07703C9.05501 0.995775 8.93306 0.955078 8.81111 0.955078C8.68916 0.955078 8.56721 0.995775 8.48596 1.11773C8.44526 1.15842 5.59983 4.53235 1.41281 4.53235C1.1689 4.53235 0.884305 4.53235 0.640403 4.49166C0.437198 4.45096 0.233854 4.61361 0.233854 4.81681C0.233854 4.89807 -0.9044 14.1663 8.6077 20.3858C8.68895 20.4265 8.77035 20.467 8.8109 20.467C8.89216 20.467 8.97355 20.4263 9.01411 20.3858C18.567 14.207 17.4287 4.93876 17.3883 4.81681H17.3884ZM8.81104 19.5729C1.04695 14.3698 0.884235 7.05269 1.00619 5.30462H1.45329C5.23377 5.30462 7.95746 2.8656 8.85153 1.93069C9.74588 2.8656 12.4693 5.30462 16.2498 5.30462H16.6969C16.7377 7.05262 16.6158 14.3698 8.81083 19.5729H8.81104Z" fill="#E5EB0B"/>
<path d="M2.18555 6.5248C2.3075 8.96382 3.24241 14.045 8.81166 18.1101C14.3806 14.045 15.3158 8.96382 15.4378 6.5248C12.4703 6.2809 10.1531 4.73623 8.81166 3.63867C7.4702 4.73623 5.15313 6.2809 2.18555 6.5248Z" fill="#E5EB0B"/>
</svg>
