<svg width="14" height="19" viewBox="0 0 14 19" fill="none" xmlns="http://www.w3.org/2000/svg">
<path d="M7.09435 9.01204V10.7242C8.04379 10.8022 8.77453 11.2674 8.77453 11.8317L4.85423 11.8319C4.85423 11.2676 5.58472 10.8023 6.53442 10.7244V9.01223C5.42966 8.87414 4.57437 7.93368 4.57437 6.79142C5.80198 6.79142 6.79793 7.77937 6.81313 9.00343H6.81587C6.83091 7.77917 7.82687 6.79142 9.05448 6.79142C9.05448 7.93348 8.19899 8.87413 7.09443 9.01203L7.09435 9.01204ZM13.1867 16.6374C13.3689 17.0509 13.4843 17.4935 13.5212 17.949C13.5359 18.1252 13.3916 18.2736 13.215 18.259C12.7441 18.2207 12.2872 18.099 11.862 17.9062C8.7001 18.3953 4.9301 18.3957 1.76644 17.9062C1.34103 18.0988 0.884145 18.2207 0.413421 18.259C0.237047 18.2732 0.0928942 18.1248 0.107155 17.949C0.144461 17.4935 0.259507 17.0509 0.441742 16.6374C-0.0217571 12.0102 -0.0227372 6.62441 0.441742 1.98568C0.259507 1.57237 0.144462 1.12958 0.107155 0.674257C0.0925057 0.497883 0.236852 0.349436 0.413421 0.364086C0.88415 0.402174 1.34122 0.524055 1.76644 0.716645C4.9365 0.226579 8.7053 0.22795 11.862 0.716645C12.2874 0.524055 12.7441 0.402173 13.215 0.364086C13.3912 0.349828 13.5355 0.497883 13.5212 0.674257C13.4839 1.12956 13.3689 1.57235 13.1867 1.98568C13.6505 6.61266 13.6505 12.0102 13.1867 16.6374ZM11.2944 9.31155C11.2944 6.83702 9.28861 4.83122 6.81403 4.83122C4.33945 4.83122 2.3337 6.83697 2.3337 9.31155C2.3337 11.7861 4.33945 13.7919 6.81403 13.7919C9.28861 13.7919 11.2944 11.7861 11.2944 9.31155Z" fill="#E5EB0B"/>
</svg>
