<!DOCTYPE svg PUBLIC "-//W3C//DTD SVG 1.1//EN" "http://www.w3.org/Graphics/SVG/1.1/DTD/svg11.dtd"><svg aria-hidden="true" xmlns="http://www.w3.org/2000/svg" xmlns:xlink="http://www.w3.org/1999/xlink"><symbol viewBox="0 0 24 24" id="arrow-down" xmlns="http://www.w3.org/2000/svg">
<path fill-rule="evenodd" clip-rule="evenodd" d="M3.54963 8.41968C3.84252 8.12679 4.31739 8.12679 4.61029 8.41968L11.1303 14.9397C11.6074 15.4168 12.3925 15.4168 12.8696 14.9397L19.3896 8.41968C19.6825 8.12679 20.1574 8.12679 20.4503 8.41968C20.7432 8.71258 20.7432 9.18745 20.4503 9.48034L13.9303 16.0003C12.8674 17.0632 11.1325 17.0632 10.0696 16.0003L3.54963 9.48034C3.25673 9.18745 3.25673 8.71258 3.54963 8.41968Z"/>
</symbol><symbol viewBox="0 0 45 47" id="bank" xmlns="http://www.w3.org/2000/svg">
<path d="M11.166 21.3334H6.49935V37.6667H11.166V21.3334ZM25.166 21.3334H20.4993V37.6667H25.166V21.3334ZM44.9993 42.3334H0.666016V47H44.9993V42.3334ZM39.166 21.3334H34.4993V37.6667H39.166V21.3334ZM22.8327 5.60671L34.9893 12H10.676L22.8327 5.60671ZM22.8327 0.333374L0.666016 12V16.6667H44.9993V12L22.8327 0.333374Z"/>
</symbol><symbol viewBox="0 0 16 16" id="circle" xmlns="http://www.w3.org/2000/svg">
<circle cx="8" cy="8" r="8"/>
</symbol><symbol viewBox="0 0 17 17" id="circle-transparent" xmlns="http://www.w3.org/2000/svg">
<circle cx="8.5" cy="8.5" r="8"/>
</symbol><symbol viewBox="0 0 27 46" id="currency" xmlns="http://www.w3.org/2000/svg">
<path d="M26.2502 30.9012C26.2502 22.825 19.6352 21.9045 14.3204 21.166C8.52792 20.361 5.25017 19.661 5.25017 14.6735C5.25017 10.4875 9.63742 9 13.3947 9C15.2671 8.93951 17.1271 9.32497 18.8212 10.1246C20.5154 10.9242 21.9952 12.1151 23.1387 13.599L25.8617 11.401C24.6371 9.8263 23.1134 8.50915 21.3781 7.52528C19.6428 6.54141 17.7302 5.91023 15.7502 5.668V0.25H12.2502V5.5385C5.92392 5.9235 1.75017 9.4935 1.75017 14.6735C1.75017 22.951 8.45267 23.8837 13.8374 24.631C19.5302 25.4237 22.7502 26.1045 22.7502 30.9012C22.7502 36.2072 17.2674 37 14.0002 37C7.99767 37 5.46367 35.313 3.11167 32.401L0.388672 34.599C1.776 36.4272 3.57036 37.9068 5.62934 38.9205C7.68832 39.9342 9.95524 40.4541 12.2502 40.4388V45.75H15.7502V40.4212C22.2707 39.8893 26.2502 36.349 26.2502 30.9012Z"/>
</symbol><symbol viewBox="0 0 15 26" id="dollar" xmlns="http://www.w3.org/2000/svg">
<path d="M15 17.515C15 12.9 11.22 12.374 8.183 11.952C4.873 11.492 3 11.092 3 8.242C3 5.85 5.507 5 7.654 5C8.72395 4.96544 9.78679 5.18569 10.7549 5.64262C11.723 6.09954 12.5686 6.78004 13.222 7.628L14.778 6.372C14.0783 5.47217 13.2076 4.71952 12.216 4.1573C11.2244 3.59509 10.1314 3.23441 9 3.096V0H7V3.022C3.385 3.242 1 5.282 1 8.242C1 12.972 4.83 13.505 7.907 13.932C11.16 14.385 13 14.774 13 17.515C13 20.547 9.867 21 8 21C4.57 21 3.122 20.036 1.778 18.372L0.222 19.628C1.01476 20.6727 2.04011 21.5182 3.21667 22.0975C4.39323 22.6767 5.68861 22.9737 7 22.965V26H9V22.955C12.726 22.651 15 20.628 15 17.515Z"/>
</symbol><symbol viewBox="0 0 35 46" id="download" xmlns="http://www.w3.org/2000/svg">
<path d="M35 36.75L32.5255 34.2755L28 38.801V24.5H24.5V38.801L19.9745 34.2755L17.5 36.75L26.25 45.5L35 36.75Z"/>
<path d="M3.5 42V10.5H24.5V19.25H28V3.5C27.9991 2.57203 27.63 1.68233 26.9739 1.02615C26.3177 0.369973 25.428 0.000926584 24.5 0H3.5C2.57203 0.000926584 1.68233 0.369973 1.02615 1.02615C0.369973 1.68233 0.000926584 2.57203 0 3.5V42C0.000926584 42.928 0.369973 43.8177 1.02615 44.4739C1.68233 45.13 2.57203 45.4991 3.5 45.5H14V42H3.5ZM3.5 3.5H24.5V7H3.5V3.5Z"/>
</symbol><symbol viewBox="0 0 19 34" id="facebook" xmlns="http://www.w3.org/2000/svg">
<path d="M18.4545 1H13.6942C11.59 1 9.572 1.84285 8.08411 3.34315C6.59622 4.84344 5.76033 6.87827 5.76033 9V13.8H1V20.2H5.76033V33H12.1074V20.2H16.8678L18.4545 13.8H12.1074V9C12.1074 8.57565 12.2746 8.16869 12.5722 7.86863C12.8698 7.56857 13.2734 7.4 13.6942 7.4H18.4545V1Z" stroke-linecap="round" stroke-linejoin="round"/>
</symbol><symbol viewBox="0 0 384 512" id="hryvnia" xmlns="http://www.w3.org/2000/svg"><!--! Font Awesome Free 6.0.0-beta2 by @fontawesome - https://fontawesome.com License - https://fontawesome.com/license/free (Icons: CC BY 4.0, Fonts: SIL OFL 1.1, Code: MIT License) --><path d="M384 304c0 17.67-14.33 32-32 32H122.2C116 344.4 112 354.8 112 365.9C112 393.5 134.5 416 162.1 416h48.64c20.33 0 40.25-8.25 54.63-22.62c12.5-12.5 32.75-12.5 45.25 0s12.5 32.75 0 45.25C283.1 465.3 248.5 480 210.8 480H162.1C99.19 480 48 428.8 48 365.9c0-10.2 1.457-20.23 4.111-29.89H32c-17.67 0-32-14.33-32-32s14.33-32 32-32h65.67c1.568-1.078 3.018-2.295 4.646-3.297L154.7 240H32c-17.67 0-32-14.33-32-32s14.33-32 32-32h229.8C267.1 167.6 272 157.2 272 146.1C272 118.5 249.5 96 221.9 96H173.3C152.9 96 133 104.3 118.6 118.6c-12.5 12.5-32.75 12.5-45.25 0s-12.5-32.75 0-45.25C100 46.69 135.5 32 173.3 32h48.64C284.8 32 336 83.19 336 146.1c0 10.2-1.457 20.23-4.111 29.89H352c17.67 0 32 14.33 32 32s-14.33 32-32 32h-65.67c-1.568 1.078-3.018 2.295-4.646 3.297L229.3 272H352C369.7 272 384 286.3 384 304z"/></symbol><symbol viewBox="0 0 32 32" id="instagram" xmlns="http://www.w3.org/2000/svg">
<path fill-rule="evenodd" clip-rule="evenodd" d="M8.53496 1.5C4.64966 1.5 1.5 4.64966 1.5 8.53496V23.6049C1.5 27.4902 4.64966 30.6398 8.53496 30.6398H23.6049C27.4902 30.6398 30.6398 27.4902 30.6398 23.6049V8.53496C30.6398 4.64966 27.4902 1.5 23.6049 1.5H8.53496ZM0.5 8.53496C0.5 4.09737 4.09737 0.5 8.53496 0.5H23.6049C28.0425 0.5 31.6398 4.09737 31.6398 8.53496V23.6049C31.6398 28.0425 28.0425 31.6398 23.6049 31.6398H8.53496C4.09737 31.6398 0.5 28.0425 0.5 23.6049V8.53496ZM16.9462 10.5363C15.796 10.3657 14.6214 10.5622 13.5893 11.0977C12.5573 11.6332 11.7203 12.4805 11.1976 13.5191C10.6748 14.5577 10.4929 15.7347 10.6776 16.8827C10.8623 18.0306 11.4043 19.0911 12.2265 19.9133C13.0487 20.7355 14.1091 21.2775 15.2571 21.4622C16.4051 21.6469 17.5821 21.465 18.6207 20.9422C19.6593 20.4195 20.5066 19.5825 21.0421 18.5504C21.5776 17.5184 21.7741 16.3437 21.6035 15.1936C21.4295 14.0204 20.8829 12.9342 20.0442 12.0956C19.2056 11.2569 18.1194 10.7102 16.9462 10.5363ZM13.1288 10.2101C14.3475 9.57766 15.7347 9.34567 17.0929 9.54708C18.4783 9.75252 19.7609 10.3981 20.7513 11.3885C21.7417 12.3788 22.3873 13.6615 22.5927 15.0469C22.7941 16.4051 22.5621 17.7923 21.9297 19.011C21.2973 20.2298 20.2967 21.2181 19.0703 21.8354C17.8438 22.4528 16.4539 22.6676 15.0982 22.4495C13.7426 22.2314 12.4903 21.5913 11.5194 20.6204C10.5485 19.6495 9.90842 18.3972 9.69028 17.0415C9.47214 15.6859 9.68702 14.296 10.3043 13.0695C10.9217 11.8431 11.91 10.8425 13.1288 10.2101ZM24.3584 7.28148C24.0822 7.28148 23.8584 7.50534 23.8584 7.78148C23.8584 8.05762 24.0822 8.28148 24.3584 8.28148H24.3756C24.6518 8.28148 24.8756 8.05762 24.8756 7.78148C24.8756 7.50534 24.6518 7.28148 24.3756 7.28148H24.3584Z"/>
</symbol><symbol id="login" viewBox="0 0 330 330" xml:space="preserve" xmlns="http://www.w3.org/2000/svg">
<g>
	<path d="M305,149.998H121.215l44.392-44.392c5.858-5.858,5.858-15.355,0-21.213c-5.857-5.858-15.355-5.858-21.213,0l-69.998,69.998   c-5.858,5.857-5.858,15.355,0,21.213l69.998,70.002c2.929,2.929,6.767,4.394,10.606,4.394c3.838-0.001,7.678-1.465,10.606-4.393   c5.857-5.858,5.858-15.355,0-21.213l-44.394-44.396H305c8.284,0,15-6.716,15-15C320,156.714,313.284,149.998,305,149.998z"/>
	<path d="M155,300H40V30h115c8.284,0,15-6.716,15-15s-6.716-15-15-15H25c-8.284,0-15,6.716-15,15v300c0,8.284,6.716,15,15,15h130   c8.284,0,15-6.716,15-15S163.284,300,155,300z"/>
</g>
</symbol><symbol viewBox="0 0 143 25" id="logo" xmlns="http://www.w3.org/2000/svg">
<line x1="2" y1="4.5" x2="2" y2="20.5" stroke-width="4" stroke-linecap="round"/>
<line x1="12" y1="6.5" x2="12" y2="18.5" stroke-width="4" stroke-linecap="round"/>
<line x1="22" y1="8.5" x2="22" y2="16.5" stroke-width="4" stroke-linecap="round"/>
<path d="M32.816 19V0.849999H42.298V2.819H34.334L35.049 2.236V9.914L34.334 8.924H41.803V10.882H34.334L35.049 9.892V19H32.816ZM50.027 19.352C48.9784 19.352 48.0287 19.0953 47.178 18.582C46.3347 18.0613 45.6637 17.35 45.165 16.448C44.6737 15.546 44.428 14.5157 44.428 13.357C44.428 12.213 44.67 11.1937 45.154 10.299C45.638 9.397 46.3017 8.68567 47.145 8.165C47.9884 7.64433 48.949 7.384 50.027 7.384C50.9804 7.384 51.8494 7.59667 52.634 8.022C53.426 8.44733 54.0384 9.03767 54.471 9.793V7.736H56.605V19H54.471V16.888C53.9797 17.6653 53.349 18.2703 52.579 18.703C51.809 19.1357 50.9584 19.352 50.027 19.352ZM50.599 17.515C51.369 17.515 52.0474 17.339 52.634 16.987C53.228 16.6277 53.6937 16.1363 54.031 15.513C54.3684 14.8897 54.537 14.1747 54.537 13.368C54.537 12.5613 54.3684 11.8463 54.031 11.223C53.6937 10.5997 53.228 10.112 52.634 9.76C52.0474 9.40067 51.369 9.221 50.599 9.221C49.8364 9.221 49.158 9.40067 48.564 9.76C47.97 10.112 47.5007 10.5997 47.156 11.223C46.8187 11.8463 46.65 12.5613 46.65 13.368C46.65 14.1673 46.8187 14.8823 47.156 15.513C47.5007 16.1363 47.97 16.6277 48.564 16.987C49.158 17.339 49.8364 17.515 50.599 17.515ZM61.1085 19V7.736H63.2425V9.386C63.6165 8.73333 64.0932 8.23833 64.6725 7.901C65.2518 7.55633 65.9082 7.384 66.6415 7.384C66.9935 7.384 67.3492 7.428 67.7085 7.516C68.0752 7.59667 68.3905 7.70667 68.6545 7.846L67.7745 9.65C67.5472 9.52533 67.2832 9.42633 66.9825 9.353C66.6818 9.27967 66.3995 9.243 66.1355 9.243C65.6442 9.243 65.1748 9.37133 64.7275 9.628C64.2875 9.87733 63.9282 10.2037 63.6495 10.607C63.3782 11.0103 63.2425 11.443 63.2425 11.905V19H61.1085ZM71.2921 19V7.736H73.4261V9.188C73.9028 8.58667 74.4418 8.13567 75.0431 7.835C75.6444 7.53433 76.3118 7.384 77.0451 7.384C77.9544 7.384 78.7538 7.593 79.4431 8.011C80.1324 8.42167 80.6128 8.98267 80.8841 9.694C81.3534 8.97533 81.9181 8.41067 82.5781 8C83.2381 7.58933 84.0118 7.384 84.8991 7.384C85.7058 7.384 86.4208 7.549 87.0441 7.879C87.6674 8.209 88.1588 8.68567 88.5181 9.309C88.8774 9.93233 89.0571 10.6877 89.0571 11.575V19H86.9231V12.169C86.9231 11.2303 86.6774 10.486 86.1861 9.936C85.6948 9.386 85.0421 9.111 84.2281 9.111C83.6634 9.111 83.1538 9.23567 82.6991 9.485C82.2518 9.727 81.8961 10.046 81.6321 10.442C81.3754 10.8307 81.2471 11.2413 81.2471 11.674V19H79.1131V12.026C79.1131 11.1387 78.8711 10.431 78.3871 9.903C77.9031 9.375 77.2578 9.111 76.4511 9.111C75.8864 9.111 75.3731 9.232 74.9111 9.474C74.4564 9.70867 74.0934 10.0167 73.8221 10.398C73.5581 10.7793 73.4261 11.179 73.4261 11.597V19H71.2921ZM99.615 19L92.003 0.849999H94.533L100.495 15.634L106.457 0.849999H108.976L101.364 19H99.615ZM115.879 19.352C114.698 19.352 113.638 19.0917 112.7 18.571C111.761 18.0503 111.02 17.3427 110.478 16.448C109.935 15.546 109.664 14.5303 109.664 13.401C109.664 12.565 109.818 11.784 110.126 11.058C110.434 10.332 110.863 9.694 111.413 9.144C111.963 8.58667 112.601 8.154 113.327 7.846C114.053 7.538 114.83 7.384 115.659 7.384C116.832 7.384 117.859 7.626 118.739 8.11C119.626 8.594 120.315 9.26867 120.807 10.134C121.305 10.9993 121.555 12.004 121.555 13.148C121.555 13.2433 121.551 13.3203 121.544 13.379C121.536 13.4377 121.522 13.5147 121.5 13.61H111.82C111.82 14.3947 111.996 15.0877 112.348 15.689C112.707 16.2903 113.198 16.7633 113.822 17.108C114.452 17.4453 115.175 17.614 115.989 17.614C116.759 17.614 117.448 17.4563 118.057 17.141C118.665 16.8257 119.193 16.3563 119.641 15.733L121.203 16.547C120.667 17.4343 119.93 18.1237 118.992 18.615C118.06 19.1063 117.023 19.352 115.879 19.352ZM111.93 12.037H119.41C119.307 11.4577 119.08 10.9517 118.728 10.519C118.383 10.079 117.947 9.738 117.419 9.496C116.898 9.24667 116.322 9.122 115.692 9.122C115.032 9.122 114.434 9.243 113.899 9.485C113.371 9.71967 112.934 10.057 112.59 10.497C112.252 10.9297 112.032 11.443 111.93 12.037ZM128.028 19.352C127.089 19.352 126.257 19.1503 125.531 18.747C124.812 18.3363 124.24 17.7533 123.815 16.998L124.838 15.678C125.226 16.3307 125.696 16.8367 126.246 17.196C126.796 17.5553 127.386 17.735 128.017 17.735C128.427 17.735 128.798 17.6543 129.128 17.493C129.465 17.3317 129.733 17.1007 129.931 16.8C130.129 16.492 130.228 16.129 130.228 15.711C130.228 15.3077 130.125 14.9923 129.92 14.765C129.722 14.5303 129.425 14.325 129.029 14.149C128.64 13.973 128.152 13.7713 127.566 13.544C127.096 13.3533 126.642 13.137 126.202 12.895C125.762 12.653 125.399 12.3487 125.113 11.982C124.834 11.608 124.695 11.135 124.695 10.563C124.695 9.947 124.86 9.40067 125.19 8.924C125.527 8.44733 125.989 8.07333 126.576 7.802C127.162 7.53067 127.83 7.395 128.578 7.395C129.186 7.395 129.777 7.516 130.349 7.758C130.921 8 131.463 8.34833 131.977 8.803L131.119 10.101C130.356 9.29433 129.513 8.891 128.589 8.891C128.031 8.891 127.58 9.034 127.236 9.32C126.891 9.59867 126.719 9.96167 126.719 10.409C126.719 10.7537 126.843 11.0433 127.093 11.278C127.342 11.5053 127.661 11.7033 128.05 11.872C128.438 12.0407 128.842 12.2057 129.26 12.367C129.89 12.6017 130.44 12.8437 130.91 13.093C131.386 13.3423 131.757 13.665 132.021 14.061C132.285 14.4497 132.417 14.974 132.417 15.634C132.417 16.404 132.233 17.0677 131.867 17.625C131.507 18.1823 130.998 18.6113 130.338 18.912C129.678 19.2053 128.908 19.352 128.028 19.352ZM138.977 19.352C138.053 19.352 137.334 19.0477 136.821 18.439C136.307 17.823 136.051 16.9613 136.051 15.854V9.353H134.797V7.736H136.051V3.523H138.185V7.736H140.891V9.353H138.185V15.722C138.185 16.2793 138.295 16.7083 138.515 17.009C138.735 17.3097 139.05 17.46 139.461 17.46C139.871 17.46 140.238 17.339 140.561 17.097L141.1 18.802C140.814 18.9707 140.48 19.1027 140.099 19.198C139.725 19.3007 139.351 19.352 138.977 19.352Z"/>
</symbol><symbol viewBox="0 0 143 25" id="logo-comb" xmlns="http://www.w3.org/2000/svg">
<line x1="2" y1="4.5" x2="2" y2="20.5" stroke-width="4" stroke-linecap="round"/>
<line x1="12" y1="6.5" x2="12" y2="18.5" stroke-width="4" stroke-linecap="round"/>
<line x1="22" y1="8.5" x2="22" y2="16.5" stroke-width="4" stroke-linecap="round"/>
<path d="M32.816 19V0.849999H42.298V2.819H34.334L35.049 2.236V9.914L34.334 8.924H41.803V10.882H34.334L35.049 9.892V19H32.816ZM50.027 19.352C48.9784 19.352 48.0287 19.0953 47.178 18.582C46.3347 18.0613 45.6637 17.35 45.165 16.448C44.6737 15.546 44.428 14.5157 44.428 13.357C44.428 12.213 44.67 11.1937 45.154 10.299C45.638 9.397 46.3017 8.68567 47.145 8.165C47.9884 7.64433 48.949 7.384 50.027 7.384C50.9804 7.384 51.8494 7.59667 52.634 8.022C53.426 8.44733 54.0384 9.03767 54.471 9.793V7.736H56.605V19H54.471V16.888C53.9797 17.6653 53.349 18.2703 52.579 18.703C51.809 19.1357 50.9584 19.352 50.027 19.352ZM50.599 17.515C51.369 17.515 52.0474 17.339 52.634 16.987C53.228 16.6277 53.6937 16.1363 54.031 15.513C54.3684 14.8897 54.537 14.1747 54.537 13.368C54.537 12.5613 54.3684 11.8463 54.031 11.223C53.6937 10.5997 53.228 10.112 52.634 9.76C52.0474 9.40067 51.369 9.221 50.599 9.221C49.8364 9.221 49.158 9.40067 48.564 9.76C47.97 10.112 47.5007 10.5997 47.156 11.223C46.8187 11.8463 46.65 12.5613 46.65 13.368C46.65 14.1673 46.8187 14.8823 47.156 15.513C47.5007 16.1363 47.97 16.6277 48.564 16.987C49.158 17.339 49.8364 17.515 50.599 17.515ZM61.1085 19V7.736H63.2425V9.386C63.6165 8.73333 64.0932 8.23833 64.6725 7.901C65.2518 7.55633 65.9082 7.384 66.6415 7.384C66.9935 7.384 67.3492 7.428 67.7085 7.516C68.0752 7.59667 68.3905 7.70667 68.6545 7.846L67.7745 9.65C67.5472 9.52533 67.2832 9.42633 66.9825 9.353C66.6818 9.27967 66.3995 9.243 66.1355 9.243C65.6442 9.243 65.1748 9.37133 64.7275 9.628C64.2875 9.87733 63.9282 10.2037 63.6495 10.607C63.3782 11.0103 63.2425 11.443 63.2425 11.905V19H61.1085ZM71.2921 19V7.736H73.4261V9.188C73.9028 8.58667 74.4418 8.13567 75.0431 7.835C75.6444 7.53433 76.3118 7.384 77.0451 7.384C77.9544 7.384 78.7538 7.593 79.4431 8.011C80.1324 8.42167 80.6128 8.98267 80.8841 9.694C81.3534 8.97533 81.9181 8.41067 82.5781 8C83.2381 7.58933 84.0118 7.384 84.8991 7.384C85.7058 7.384 86.4208 7.549 87.0441 7.879C87.6674 8.209 88.1588 8.68567 88.5181 9.309C88.8774 9.93233 89.0571 10.6877 89.0571 11.575V19H86.9231V12.169C86.9231 11.2303 86.6774 10.486 86.1861 9.936C85.6948 9.386 85.0421 9.111 84.2281 9.111C83.6634 9.111 83.1538 9.23567 82.6991 9.485C82.2518 9.727 81.8961 10.046 81.6321 10.442C81.3754 10.8307 81.2471 11.2413 81.2471 11.674V19H79.1131V12.026C79.1131 11.1387 78.8711 10.431 78.3871 9.903C77.9031 9.375 77.2578 9.111 76.4511 9.111C75.8864 9.111 75.3731 9.232 74.9111 9.474C74.4564 9.70867 74.0934 10.0167 73.8221 10.398C73.5581 10.7793 73.4261 11.179 73.4261 11.597V19H71.2921ZM99.615 19L92.003 0.849999H94.533L100.495 15.634L106.457 0.849999H108.976L101.364 19H99.615ZM115.879 19.352C114.698 19.352 113.638 19.0917 112.7 18.571C111.761 18.0503 111.02 17.3427 110.478 16.448C109.935 15.546 109.664 14.5303 109.664 13.401C109.664 12.565 109.818 11.784 110.126 11.058C110.434 10.332 110.863 9.694 111.413 9.144C111.963 8.58667 112.601 8.154 113.327 7.846C114.053 7.538 114.83 7.384 115.659 7.384C116.832 7.384 117.859 7.626 118.739 8.11C119.626 8.594 120.315 9.26867 120.807 10.134C121.305 10.9993 121.555 12.004 121.555 13.148C121.555 13.2433 121.551 13.3203 121.544 13.379C121.536 13.4377 121.522 13.5147 121.5 13.61H111.82C111.82 14.3947 111.996 15.0877 112.348 15.689C112.707 16.2903 113.198 16.7633 113.822 17.108C114.452 17.4453 115.175 17.614 115.989 17.614C116.759 17.614 117.448 17.4563 118.057 17.141C118.665 16.8257 119.193 16.3563 119.641 15.733L121.203 16.547C120.667 17.4343 119.93 18.1237 118.992 18.615C118.06 19.1063 117.023 19.352 115.879 19.352ZM111.93 12.037H119.41C119.307 11.4577 119.08 10.9517 118.728 10.519C118.383 10.079 117.947 9.738 117.419 9.496C116.898 9.24667 116.322 9.122 115.692 9.122C115.032 9.122 114.434 9.243 113.899 9.485C113.371 9.71967 112.934 10.057 112.59 10.497C112.252 10.9297 112.032 11.443 111.93 12.037ZM128.028 19.352C127.089 19.352 126.257 19.1503 125.531 18.747C124.812 18.3363 124.24 17.7533 123.815 16.998L124.838 15.678C125.226 16.3307 125.696 16.8367 126.246 17.196C126.796 17.5553 127.386 17.735 128.017 17.735C128.427 17.735 128.798 17.6543 129.128 17.493C129.465 17.3317 129.733 17.1007 129.931 16.8C130.129 16.492 130.228 16.129 130.228 15.711C130.228 15.3077 130.125 14.9923 129.92 14.765C129.722 14.5303 129.425 14.325 129.029 14.149C128.64 13.973 128.152 13.7713 127.566 13.544C127.096 13.3533 126.642 13.137 126.202 12.895C125.762 12.653 125.399 12.3487 125.113 11.982C124.834 11.608 124.695 11.135 124.695 10.563C124.695 9.947 124.86 9.40067 125.19 8.924C125.527 8.44733 125.989 8.07333 126.576 7.802C127.162 7.53067 127.83 7.395 128.578 7.395C129.186 7.395 129.777 7.516 130.349 7.758C130.921 8 131.463 8.34833 131.977 8.803L131.119 10.101C130.356 9.29433 129.513 8.891 128.589 8.891C128.031 8.891 127.58 9.034 127.236 9.32C126.891 9.59867 126.719 9.96167 126.719 10.409C126.719 10.7537 126.843 11.0433 127.093 11.278C127.342 11.5053 127.661 11.7033 128.05 11.872C128.438 12.0407 128.842 12.2057 129.26 12.367C129.89 12.6017 130.44 12.8437 130.91 13.093C131.386 13.3423 131.757 13.665 132.021 14.061C132.285 14.4497 132.417 14.974 132.417 15.634C132.417 16.404 132.233 17.0677 131.867 17.625C131.507 18.1823 130.998 18.6113 130.338 18.912C129.678 19.2053 128.908 19.352 128.028 19.352ZM138.977 19.352C138.053 19.352 137.334 19.0477 136.821 18.439C136.307 17.823 136.051 16.9613 136.051 15.854V9.353H134.797V7.736H136.051V3.523H138.185V7.736H140.891V9.353H138.185V15.722C138.185 16.2793 138.295 16.7083 138.515 17.009C138.735 17.3097 139.05 17.46 139.461 17.46C139.871 17.46 140.238 17.339 140.561 17.097L141.1 18.802C140.814 18.9707 140.48 19.1027 140.099 19.198C139.725 19.3007 139.351 19.352 138.977 19.352Z"/>
</symbol><symbol viewBox="0 0 143 25" id="logo-letter" xmlns="http://www.w3.org/2000/svg">
<line x1="2" y1="4.5" x2="2" y2="20.5" stroke-width="4" stroke-linecap="round"/>
<line x1="12" y1="6.5" x2="12" y2="18.5" stroke-width="4" stroke-linecap="round"/>
<line x1="22" y1="8.5" x2="22" y2="16.5" stroke-width="4" stroke-linecap="round"/>
<path d="M32.816 19V0.849999H42.298V2.819H34.334L35.049 2.236V9.914L34.334 8.924H41.803V10.882H34.334L35.049 9.892V19H32.816ZM50.027 19.352C48.9784 19.352 48.0287 19.0953 47.178 18.582C46.3347 18.0613 45.6637 17.35 45.165 16.448C44.6737 15.546 44.428 14.5157 44.428 13.357C44.428 12.213 44.67 11.1937 45.154 10.299C45.638 9.397 46.3017 8.68567 47.145 8.165C47.9884 7.64433 48.949 7.384 50.027 7.384C50.9804 7.384 51.8494 7.59667 52.634 8.022C53.426 8.44733 54.0384 9.03767 54.471 9.793V7.736H56.605V19H54.471V16.888C53.9797 17.6653 53.349 18.2703 52.579 18.703C51.809 19.1357 50.9584 19.352 50.027 19.352ZM50.599 17.515C51.369 17.515 52.0474 17.339 52.634 16.987C53.228 16.6277 53.6937 16.1363 54.031 15.513C54.3684 14.8897 54.537 14.1747 54.537 13.368C54.537 12.5613 54.3684 11.8463 54.031 11.223C53.6937 10.5997 53.228 10.112 52.634 9.76C52.0474 9.40067 51.369 9.221 50.599 9.221C49.8364 9.221 49.158 9.40067 48.564 9.76C47.97 10.112 47.5007 10.5997 47.156 11.223C46.8187 11.8463 46.65 12.5613 46.65 13.368C46.65 14.1673 46.8187 14.8823 47.156 15.513C47.5007 16.1363 47.97 16.6277 48.564 16.987C49.158 17.339 49.8364 17.515 50.599 17.515ZM61.1085 19V7.736H63.2425V9.386C63.6165 8.73333 64.0932 8.23833 64.6725 7.901C65.2518 7.55633 65.9082 7.384 66.6415 7.384C66.9935 7.384 67.3492 7.428 67.7085 7.516C68.0752 7.59667 68.3905 7.70667 68.6545 7.846L67.7745 9.65C67.5472 9.52533 67.2832 9.42633 66.9825 9.353C66.6818 9.27967 66.3995 9.243 66.1355 9.243C65.6442 9.243 65.1748 9.37133 64.7275 9.628C64.2875 9.87733 63.9282 10.2037 63.6495 10.607C63.3782 11.0103 63.2425 11.443 63.2425 11.905V19H61.1085ZM71.2921 19V7.736H73.4261V9.188C73.9028 8.58667 74.4418 8.13567 75.0431 7.835C75.6444 7.53433 76.3118 7.384 77.0451 7.384C77.9544 7.384 78.7538 7.593 79.4431 8.011C80.1324 8.42167 80.6128 8.98267 80.8841 9.694C81.3534 8.97533 81.9181 8.41067 82.5781 8C83.2381 7.58933 84.0118 7.384 84.8991 7.384C85.7058 7.384 86.4208 7.549 87.0441 7.879C87.6674 8.209 88.1588 8.68567 88.5181 9.309C88.8774 9.93233 89.0571 10.6877 89.0571 11.575V19H86.9231V12.169C86.9231 11.2303 86.6774 10.486 86.1861 9.936C85.6948 9.386 85.0421 9.111 84.2281 9.111C83.6634 9.111 83.1538 9.23567 82.6991 9.485C82.2518 9.727 81.8961 10.046 81.6321 10.442C81.3754 10.8307 81.2471 11.2413 81.2471 11.674V19H79.1131V12.026C79.1131 11.1387 78.8711 10.431 78.3871 9.903C77.9031 9.375 77.2578 9.111 76.4511 9.111C75.8864 9.111 75.3731 9.232 74.9111 9.474C74.4564 9.70867 74.0934 10.0167 73.8221 10.398C73.5581 10.7793 73.4261 11.179 73.4261 11.597V19H71.2921ZM99.615 19L92.003 0.849999H94.533L100.495 15.634L106.457 0.849999H108.976L101.364 19H99.615ZM115.879 19.352C114.698 19.352 113.638 19.0917 112.7 18.571C111.761 18.0503 111.02 17.3427 110.478 16.448C109.935 15.546 109.664 14.5303 109.664 13.401C109.664 12.565 109.818 11.784 110.126 11.058C110.434 10.332 110.863 9.694 111.413 9.144C111.963 8.58667 112.601 8.154 113.327 7.846C114.053 7.538 114.83 7.384 115.659 7.384C116.832 7.384 117.859 7.626 118.739 8.11C119.626 8.594 120.315 9.26867 120.807 10.134C121.305 10.9993 121.555 12.004 121.555 13.148C121.555 13.2433 121.551 13.3203 121.544 13.379C121.536 13.4377 121.522 13.5147 121.5 13.61H111.82C111.82 14.3947 111.996 15.0877 112.348 15.689C112.707 16.2903 113.198 16.7633 113.822 17.108C114.452 17.4453 115.175 17.614 115.989 17.614C116.759 17.614 117.448 17.4563 118.057 17.141C118.665 16.8257 119.193 16.3563 119.641 15.733L121.203 16.547C120.667 17.4343 119.93 18.1237 118.992 18.615C118.06 19.1063 117.023 19.352 115.879 19.352ZM111.93 12.037H119.41C119.307 11.4577 119.08 10.9517 118.728 10.519C118.383 10.079 117.947 9.738 117.419 9.496C116.898 9.24667 116.322 9.122 115.692 9.122C115.032 9.122 114.434 9.243 113.899 9.485C113.371 9.71967 112.934 10.057 112.59 10.497C112.252 10.9297 112.032 11.443 111.93 12.037ZM128.028 19.352C127.089 19.352 126.257 19.1503 125.531 18.747C124.812 18.3363 124.24 17.7533 123.815 16.998L124.838 15.678C125.226 16.3307 125.696 16.8367 126.246 17.196C126.796 17.5553 127.386 17.735 128.017 17.735C128.427 17.735 128.798 17.6543 129.128 17.493C129.465 17.3317 129.733 17.1007 129.931 16.8C130.129 16.492 130.228 16.129 130.228 15.711C130.228 15.3077 130.125 14.9923 129.92 14.765C129.722 14.5303 129.425 14.325 129.029 14.149C128.64 13.973 128.152 13.7713 127.566 13.544C127.096 13.3533 126.642 13.137 126.202 12.895C125.762 12.653 125.399 12.3487 125.113 11.982C124.834 11.608 124.695 11.135 124.695 10.563C124.695 9.947 124.86 9.40067 125.19 8.924C125.527 8.44733 125.989 8.07333 126.576 7.802C127.162 7.53067 127.83 7.395 128.578 7.395C129.186 7.395 129.777 7.516 130.349 7.758C130.921 8 131.463 8.34833 131.977 8.803L131.119 10.101C130.356 9.29433 129.513 8.891 128.589 8.891C128.031 8.891 127.58 9.034 127.236 9.32C126.891 9.59867 126.719 9.96167 126.719 10.409C126.719 10.7537 126.843 11.0433 127.093 11.278C127.342 11.5053 127.661 11.7033 128.05 11.872C128.438 12.0407 128.842 12.2057 129.26 12.367C129.89 12.6017 130.44 12.8437 130.91 13.093C131.386 13.3423 131.757 13.665 132.021 14.061C132.285 14.4497 132.417 14.974 132.417 15.634C132.417 16.404 132.233 17.0677 131.867 17.625C131.507 18.1823 130.998 18.6113 130.338 18.912C129.678 19.2053 128.908 19.352 128.028 19.352ZM138.977 19.352C138.053 19.352 137.334 19.0477 136.821 18.439C136.307 17.823 136.051 16.9613 136.051 15.854V9.353H134.797V7.736H136.051V3.523H138.185V7.736H140.891V9.353H138.185V15.722C138.185 16.2793 138.295 16.7083 138.515 17.009C138.735 17.3097 139.05 17.46 139.461 17.46C139.871 17.46 140.238 17.339 140.561 17.097L141.1 18.802C140.814 18.9707 140.48 19.1027 140.099 19.198C139.725 19.3007 139.351 19.352 138.977 19.352Z"/>
</symbol><symbol viewBox="0 0 24 20" id="logo-schema" xmlns="http://www.w3.org/2000/svg">
<path fill-rule="evenodd" clip-rule="evenodd" d="M2 0C3.10457 0 4 0.89543 4 2V18C4 19.1046 3.10457 20 2 20C0.89543 20 0 19.1046 0 18V2C0 0.89543 0.89543 0 2 0Z"/>
<path fill-rule="evenodd" clip-rule="evenodd" d="M12 2C13.1046 2 14 2.89543 14 4V16C14 17.1046 13.1046 18 12 18C10.8954 18 10 17.1046 10 16V4C10 2.89543 10.8954 2 12 2Z"/>
<path fill-rule="evenodd" clip-rule="evenodd" d="M22 4C23.1046 4 24 4.89543 24 6V14C24 15.1046 23.1046 16 22 16C20.8954 16 20 15.1046 20 14V6C20 4.89543 20.8954 4 22 4Z"/>
</symbol><symbol viewBox="0 0 48 48" id="money-bag" xmlns="http://www.w3.org/2000/svg">
<path d="M8.22752 40.3245C8.94908 40.3245 9.53402 39.9256 9.53402 39.4335C9.53402 38.9414 8.94908 38.5425 8.22752 38.5425C7.50596 38.5425 6.92102 38.9414 6.92102 39.4335C6.92102 39.9256 7.50596 40.3245 8.22752 40.3245Z"/>
<path d="M46.5 35.0017L46.0095 34.7137C45.972 34.692 42.2242 32.4683 41.2927 29.7698L41.085 29.172L40.701 29.6737C40.689 29.6895 40.1565 30.348 38.6663 31.1205C37.563 24.8407 33.81 17.3438 28.878 14.1473C30.288 14.2613 31.7025 14.1443 33.0675 13.6478C33.8895 13.3493 33.5347 12.0097 32.7052 12.3127C31.5862 12.72 30.465 12.831 29.346 12.774C32.0932 10.2562 34.2502 6.3975 34.2502 3.576C34.2502 2.898 34.2502 1.63575 33.2452 1.63575C32.8417 1.63575 32.5155 1.88775 32.0647 2.23575C31.3732 2.769 30.3293 3.576 28.7955 3.576C28.2113 3.576 27.1417 2.9595 26.2822 2.4645C25.2435 1.86675 24.5797 1.5 24.0217 1.5C23.0977 1.5 21.7395 2.247 20.541 2.90625C20.0535 3.174 19.3868 3.5415 19.2488 3.57675C17.5118 3.57675 16.503 2.77575 15.834 2.2455C15.444 1.935 15.1612 1.71 14.784 1.71C13.7955 1.71 13.7955 2.89575 13.7955 4.269C13.7955 6.9195 15.8145 10.4182 18.4583 12.7695C16.7925 12.8887 15.15 13.392 13.9957 14.5103C13.3582 15.1268 14.3242 16.1047 14.9595 15.4897C15.9187 14.5597 17.1765 14.1615 18.522 14.0842C18.5602 14.2215 18.6068 14.3565 18.6638 14.4893C13.0268 18.54 9.0225 28.1587 9.0225 34.6522C9.0225 35.2927 9.072 35.8725 9.1485 36.4185C7.695 35.7727 7.16475 35.2065 7.15425 35.1937L6.76725 34.7475L6.57675 35.31C5.7345 37.788 2.073 39.9375 2.03625 39.9592L1.5 40.2705L2.04525 40.5653C2.2365 40.6688 2.42625 40.7595 2.6175 40.8578L2.2725 41.097L2.45475 43.377L16.7445 46.5L22.1625 43.0343C22.7092 43.0373 23.2627 43.0387 23.826 43.0387L30.159 46.5L44.4757 42V39.5933L44.097 39.366C44.286 39.246 44.475 39.1238 44.6632 38.9978L45.165 38.6625L45.0548 38.6085L45.693 38.4337L45.801 35.9318L45.432 35.67C45.6285 35.5523 45.8243 35.4322 46.0208 35.3077L46.5 35.0017V35.0017ZM15.1597 4.269C15.1597 3.936 15.1643 3.6765 15.171 3.47475C15.2858 3.56475 15.4193 3.663 15.5618 3.76425C15.999 4.81125 16.8263 6.31875 18.2288 7.26825C19.9328 8.42325 19.7062 7.09575 20.6152 5.88375C21.5242 4.6725 22.1392 4.038 23.6617 7.1535C24.3255 8.51175 25.4318 4.716 26.4833 4.16175C26.7615 4.31325 27.039 4.45425 27.3113 4.57425C29.1968 7.64025 30.0705 6.684 31.7452 4.1355C32.2057 3.8655 32.5838 3.576 32.8845 3.34425C32.886 3.414 32.8875 3.49125 32.8875 3.5775C32.8875 5.985 30.9202 9.438 28.5112 11.6902C28.3975 11.4012 28.2346 11.134 28.0298 10.9005C27.057 9.79875 25.5368 11.0205 24.816 11.8222C23.5373 11.4112 21.4538 10.2795 20.0963 10.9275C19.7582 11.0843 19.4477 11.2948 19.1768 11.5508C16.9568 9.52725 15.1597 6.606 15.1597 4.269V4.269ZM27.3127 12.4995C26.9765 12.4282 26.6421 12.3482 26.31 12.2595C26.7285 11.8988 27.1125 11.7728 27.2738 12.309C27.291 12.3675 27.3015 12.4343 27.3127 12.4995V12.4995ZM21.6127 12.9653C21.3645 12.918 21.1095 12.8752 20.847 12.8415C20.648 12.7167 20.4531 12.5854 20.2628 12.4478C20.9483 11.988 22.1303 12.2325 23.2598 12.6157C22.7025 12.672 22.1527 12.7935 21.6127 12.9653V12.9653ZM21.9532 14.9453C21.5332 15.0503 21.0757 15.0083 20.6805 14.8508C20.841 14.766 21.003 14.6925 21.165 14.6182C21.4275 14.745 21.69 14.8508 21.9532 14.9453ZM8.0805 42.2843C6.29166 41.7662 4.55591 41.0799 2.8965 40.2345C3.91425 39.5655 6.13125 37.9478 7.03275 36.0038C7.65075 36.489 9.07725 37.374 11.8553 38.0535C11.808 38.13 11.7503 38.2117 11.6948 38.292C9.32325 37.671 7.97475 36.8857 7.953 36.8722L7.626 36.6772L7.46925 37.0275C7.263 37.4865 6.77925 37.5555 6.51 37.5555C6.435 37.5555 6.38475 37.5503 6.378 37.5495L6.11025 37.5105L6.01275 37.767C5.81325 38.2905 4.99425 38.9745 4.69425 39.1942L4.19325 39.5618L4.76625 39.7965C4.97925 39.8835 5.037 39.9637 5.04 39.9847C5.0475 40.0365 4.95675 40.173 4.86 40.2517L4.4235 40.6035L4.93125 40.8383C5.9715 41.3183 7.14975 41.7157 8.328 42.0435C8.23425 42.1357 8.15325 42.2145 8.0805 42.2843ZM14.1285 39.4897C15.177 39.6367 16.3387 39.7297 17.6077 39.7297H17.6085C17.8725 39.7297 18.1403 39.7253 18.4133 39.717C18.4314 39.7736 18.4574 39.8274 18.4905 39.8767C18.5572 39.978 18.6472 40.062 18.7612 40.1272L16.8472 41.763C16.8108 41.7614 16.7743 41.7607 16.7377 41.7607C15.885 41.7607 15.249 42.0742 14.9437 42.6322C13.7872 42.4847 12.6361 42.2979 11.4922 42.072C12.4117 41.2538 13.2915 40.3921 14.1285 39.4897V39.4897ZM5.61675 40.3875C5.69175 40.2457 5.7405 40.074 5.71425 39.8865C5.68932 39.7173 5.60822 39.5615 5.484 39.444C5.82075 39.1552 6.285 38.7098 6.54 38.2485C7.11975 38.2403 7.59825 38.0205 7.89975 37.632C8.4075 37.8975 9.55125 38.4338 11.241 38.8988C10.5502 39.765 9.6195 40.7475 8.89575 41.478C7.76775 41.1795 6.6315 40.8195 5.61675 40.3875V40.3875ZM16.305 43.5442L16.1512 43.545C15.5055 43.545 13.3658 43.4925 10.539 42.9038C10.638 42.8198 10.7407 42.7335 10.836 42.651C13.1295 43.1303 14.979 43.3357 15.1177 43.3515L15.3923 43.3807L15.477 43.1145C15.6622 42.54 16.3455 42.4552 16.737 42.4552C16.8442 42.4552 16.9155 42.462 16.9238 42.4628L17.0693 42.4785L20.394 39.6375L19.5052 39.6083C19.2082 39.5978 19.083 39.531 19.0522 39.4852L19.2405 38.9925L18.72 39.0143C18.3405 39.0308 17.97 39.039 17.6077 39.039H17.607C16.56 39.039 15.5887 38.97 14.691 38.8612L14.8995 38.6152C16.7115 38.8575 18.8812 39.0068 21.501 38.988C20.8755 39.8655 19.3155 41.7307 16.305 43.5442V43.5442ZM23.823 40.2855V41.6543C23.3962 41.6543 22.9808 41.6528 22.5743 41.6498L22.452 40.1093L21.4365 40.1918C22.1205 39.3833 22.4122 38.844 22.4385 38.7953L22.7137 38.2748L22.1325 38.2853C16.569 38.3873 12.9405 37.7243 10.65 36.9878C10.4827 36.3113 10.386 35.5462 10.386 34.653C10.386 28.5607 14.2792 19.3522 19.4482 15.6202C20.364 16.506 21.753 16.8937 23.073 16.032C23.3625 15.843 23.6145 15.5955 23.8508 15.3323C23.907 15.3338 23.9647 15.3465 24.0217 15.3465C24.2107 15.3465 24.4027 15.3308 24.594 15.3068C24.8362 15.4035 25.0732 15.501 25.293 15.5978C26.3452 16.0613 27.2438 15.7733 27.8573 15.1343C32.592 17.9993 36.3855 25.578 37.3838 31.704C35.2193 32.5695 31.7857 33.414 26.5162 33.5625C27.5557 32.9685 28.3358 31.9695 28.0553 30.657C27.7605 29.2695 26.601 28.8795 25.4003 28.8158C25.3973 28.164 25.3972 27.5138 25.4017 26.862C25.77 27.0248 26.1232 27.2122 26.4442 27.4125C27.0112 27.7687 27.5243 26.8455 26.961 26.4893C26.4726 26.1822 25.9514 25.9309 25.407 25.74C25.4145 24.9855 25.4182 24.2325 25.4182 23.4795C25.419 22.7895 24.3938 22.7895 24.3938 23.4795C24.3938 24.1417 24.3893 24.8032 24.3833 25.464C23.8375 25.3689 23.2803 25.3595 22.7318 25.4363C22.6426 24.9398 22.5345 24.447 22.4078 23.9587C22.2383 23.2942 21.2482 23.5755 21.42 24.2423C21.546 24.7215 21.6488 25.1985 21.7335 25.6823C21.69 25.6988 21.6427 25.707 21.6 25.7265C20.211 26.2762 19.3635 27.678 20.3798 28.9852C20.853 29.5942 21.4717 29.8402 22.149 29.922C22.1857 30.8242 22.209 31.7273 22.2352 32.6288C21.7815 32.334 21.3683 31.956 20.994 31.5563C20.5305 31.0673 19.8067 31.8225 20.2695 32.3108C20.8987 32.9805 21.5595 33.4868 22.2758 33.8108C22.308 34.581 22.3538 35.3535 22.4288 36.12C22.4948 36.8002 23.5207 36.804 23.454 36.12C23.3908 35.457 23.344 34.7926 23.3137 34.1272C23.7037 34.1947 24.1132 34.212 24.5482 34.1708C24.597 34.8803 24.654 35.5897 24.735 36.2992C24.7815 36.7057 25.17 36.8655 25.4565 36.783L25.3927 38.256C24.9412 38.2965 24.4807 38.334 24.0007 38.3655L23.4293 38.403L23.7338 38.895C23.7645 38.9445 24.1102 39.4912 24.882 40.287H23.823V40.2855ZM42.489 35.349C41.5463 35.7922 40.3538 36.1987 39.1388 36.5535C38.3918 35.7817 37.4363 34.752 36.723 33.8385C38.3123 33.357 39.2018 32.8605 39.603 32.5928C39.9203 32.8725 40.3403 33.018 40.8375 33.0172C41.0025 33.0172 41.1487 33.0015 41.2612 32.9835C41.6212 33.45 42.2017 33.9885 42.5647 34.3103C42.393 34.4865 42.3098 34.6815 42.3165 34.8922C42.3225 35.0722 42.3945 35.2252 42.489 35.349V35.349ZM37.1228 37.8135C37.2758 37.9485 37.434 38.0865 37.5952 38.226C34.5547 39.0322 32.292 39.12 31.7992 39.1283C28.6507 37.2075 27.0188 35.175 26.3895 34.26C29.0243 34.194 31.2023 33.9555 33.0188 33.627C33.0926 33.7177 33.1674 33.8077 33.243 33.897C31.783 34.1244 30.3115 34.2704 28.8352 34.3342L28.23 34.3597L28.563 34.869C28.5622 34.8698 28.4947 34.9958 28.0477 35.0828L27.321 35.2245L30.894 38.1173L31.0605 38.0723C31.0643 38.0715 31.3793 37.9867 31.7603 37.9867C32.31 37.9867 32.6858 38.154 32.8748 38.481L32.9948 38.688L33.228 38.6467C34.5344 38.4086 35.8333 38.1307 37.1228 37.8135V37.8135ZM26.55 35.6093L25.6965 35.5627C25.6568 35.1367 25.617 34.7108 25.587 34.2848C25.737 34.5338 26.0445 35.0018 26.55 35.6093ZM25.494 32.8635C25.4448 31.8539 25.415 30.8435 25.4048 29.8328C25.5278 29.8373 25.6493 29.8485 25.7648 29.865C27.0908 30.066 27.4372 31.5405 26.4022 32.37C26.1322 32.5837 25.821 32.7405 25.494 32.8635ZM33.3232 37.9275C32.9872 37.5127 32.4525 37.2953 31.761 37.2953C31.4722 37.2953 31.218 37.3342 31.0575 37.3657L28.8113 35.5455C28.998 35.4383 29.124 35.3025 29.193 35.136C29.21 35.0946 29.223 35.0516 29.232 35.0077C31.0125 34.9102 32.5125 34.7325 33.7808 34.515C34.3958 35.2013 35.2995 36.1478 36.498 37.248C35.0258 37.5983 33.798 37.8382 33.3232 37.9275V37.9275ZM24.3788 29.8597C24.393 30.9465 24.42 32.0362 24.4778 33.1222C24.381 33.1372 24.2858 33.156 24.1905 33.1658C23.868 33.2025 23.562 33.1755 23.271 33.102C23.2342 32.052 23.2102 30.9997 23.1705 29.949C23.574 29.9302 23.9828 29.8905 24.3788 29.8597V29.8597ZM23.1188 28.911C23.0719 28.0869 22.9943 27.2648 22.8862 26.4465C23.3834 26.3782 23.8889 26.4039 24.3765 26.5222C24.3711 27.289 24.3699 28.0557 24.3728 28.8225C24.0435 28.8405 23.7308 28.872 23.4555 28.8967C23.3435 28.9055 23.2311 28.9102 23.1188 28.911V28.911ZM22.0897 28.7798C22.026 28.7625 21.963 28.749 21.8978 28.7273C21.5977 28.6255 21.326 28.4541 21.105 28.227C20.4645 27.6293 21.3435 27.0428 21.8978 26.7645C21.9848 27.432 22.0447 28.1055 22.0897 28.7798V28.7798ZM30.3675 43.3793C27.1118 41.7158 25.365 39.867 24.6713 39.0105C25.17 38.973 25.6418 38.928 26.109 38.8807L31.4475 42.3457L43.155 39.1298C37.1175 42.7688 31.1528 43.323 30.3675 43.3793V43.3793ZM40.0365 37.4618C39.9405 37.3658 39.8257 37.2518 39.69 37.1145C41.022 36.711 42.3105 36.243 43.2712 35.7285L43.8555 35.4143L43.263 35.1128C43.1302 35.0445 43.0005 34.9192 42.9983 34.872C42.9998 34.854 43.0523 34.758 43.2795 34.6275L43.713 34.3785L43.3275 34.0575C43.3155 34.0477 42.1133 33.0495 41.691 32.4067L41.5515 32.1968L41.3123 32.2665C41.31 32.2665 41.1045 32.3258 40.8375 32.3258C40.425 32.3265 40.116 32.1915 39.918 31.926L39.699 31.6357L39.4245 31.872C39.4103 31.884 38.5605 32.5808 36.2812 33.2393C36.2062 33.1311 36.1339 33.0211 36.0645 32.9093C38.8282 32.0715 40.2405 31.0575 40.8525 30.5025C41.835 32.628 44.1742 34.3402 45.1897 35.0115C43.5584 35.9987 41.8319 36.8196 40.0365 37.4618"/>
<path d="M33.285 35.3378C32.5372 35.1346 31.6935 35.2733 31.398 35.6446C31.1047 36.0173 31.4752 36.4868 32.2223 36.6916C32.9708 36.8948 33.8137 36.7553 34.1092 36.3833C34.4025 36.0106 34.0335 35.5426 33.285 35.3378Z"/>
</symbol><symbol viewBox="0 0 22 18" id="naira" xmlns="http://www.w3.org/2000/svg">
<path fill-rule="evenodd" clip-rule="evenodd" d="M17.6666 0C18.2189 0 18.6666 0.447715 18.6666 1V15.597C18.6666 15.5971 18.6666 15.5969 18.6666 15.597C18.6667 16.1288 18.4902 16.6458 18.1648 17.0663C17.8394 17.487 17.3835 17.7876 16.8686 17.921C16.3538 18.0544 15.8093 18.0131 15.3205 17.8034C14.8318 17.5938 14.4266 17.2278 14.1684 16.763C14.1684 16.7629 14.1684 16.763 14.1684 16.763L6.08308 2.20828C6.04005 2.13079 5.97239 2.06957 5.89093 2.03463C5.80947 1.99969 5.71871 1.9928 5.63291 2.01503C5.5471 2.03727 5.47112 2.08737 5.41688 2.15748C5.36264 2.22759 5.33323 2.31373 5.33325 2.40236V17C5.33325 17.5523 4.88554 18 4.33325 18C3.78097 18 3.33325 17.5523 3.33325 17L3.33325 2.40297C3.33325 2.40287 3.33325 2.40307 3.33325 2.40297C3.33316 1.87125 3.50965 1.35424 3.83501 0.933679C4.16044 0.513038 4.61636 0.212401 5.13119 0.0789863C5.64601 -0.0544283 6.19057 -0.0130634 6.67933 0.196584C7.16802 0.4062 7.57326 0.772176 7.83142 1.23705C7.83146 1.23712 7.83139 1.23698 7.83142 1.23705L15.9168 15.7917C15.9598 15.8692 16.0274 15.9304 16.1089 15.9654C16.1904 16.0003 16.2811 16.0072 16.3669 15.985C16.4527 15.9627 16.5287 15.9126 16.583 15.8425C16.6372 15.7724 16.6666 15.6863 16.6666 15.5976L16.6666 1C16.6666 0.447715 17.1143 0 17.6666 0Z"/>
<path fill-rule="evenodd" clip-rule="evenodd" d="M0.666626 6.33325C0.666626 5.78097 1.11434 5.33325 1.66663 5.33325H20.3333C20.8856 5.33325 21.3333 5.78097 21.3333 6.33325C21.3333 6.88554 20.8856 7.33325 20.3333 7.33325H1.66663C1.11434 7.33325 0.666626 6.88554 0.666626 6.33325Z"/>
<path fill-rule="evenodd" clip-rule="evenodd" d="M0.666626 11.6667C0.666626 11.1145 1.11434 10.6667 1.66663 10.6667H20.3333C20.8856 10.6667 21.3333 11.1145 21.3333 11.6667C21.3333 12.219 20.8856 12.6667 20.3333 12.6667H1.66663C1.11434 12.6667 0.666626 12.219 0.666626 11.6667Z"/>
</symbol><symbol viewBox="0 0 40 37" id="star" xmlns="http://www.w3.org/2000/svg">
<path d="M20 0L24.4903 13.8197H39.0211L27.2654 22.3607L31.7557 36.1803L20 27.6393L8.2443 36.1803L12.7346 22.3607L0.97887 13.8197H15.5097L20 0Z"/>
</symbol><symbol viewBox="0 0 40 37" id="star-transparent" xmlns="http://www.w3.org/2000/svg">
<path d="M20 1.61804L24.0148 13.9742L24.127 14.3197H24.4903H37.4823L26.9715 21.9562L26.6776 22.1697L26.7899 22.5152L30.8046 34.8713L20.2939 27.2348L20 27.0213L19.7061 27.2348L9.19535 34.8713L13.2101 22.5152L13.3224 22.1697L13.0285 21.9562L2.51771 14.3197H15.5097H15.873L15.9852 13.9742L20 1.61804Z"/>
</symbol><symbol viewBox="0 0 34 28" id="twitter" xmlns="http://www.w3.org/2000/svg">
<path d="M32.7778 1.01457C31.3946 1.99332 29.863 2.74191 28.2422 3.23151C27.3723 2.22811 26.2162 1.51692 24.9302 1.19414C23.6442 0.871354 22.2904 0.952548 21.0519 1.42674C19.8134 1.90093 18.75 2.74523 18.0054 3.84546C17.2609 4.94569 16.8711 6.24877 16.8889 7.57844V9.02742C14.3505 9.09345 11.8352 8.5287 9.56701 7.38348C7.29885 6.23825 5.34824 4.5481 3.88889 2.46355C3.88889 2.46355 -1.88889 15.5043 11.1111 21.3003C8.13632 23.3259 4.59256 24.3416 1 24.1982C14 31.4431 29.8889 24.1982 29.8889 7.53497C29.8876 7.13136 29.8489 6.72875 29.7733 6.33232C31.2475 4.87391 32.2879 3.03258 32.7778 1.01457V1.01457Z" stroke-linecap="round" stroke-linejoin="round"/>
</symbol><symbol viewBox="0 0 40 48" id="user" xmlns="http://www.w3.org/2000/svg">
<path d="M34 28C36.612 28 38.836 29.67 39.66 32H20V31H6C5.25455 31 4.53579 31.2775 3.98378 31.7785C3.43178 32.2795 3.08606 32.968 3.014 33.71L3 34V35.43C3 40.778 9.778 45 20 45V44H34.942C31.362 46.486 26.122 48 20 48C8.42 48 0 42.866 0 35.43V34C0 32.4087 0.632141 30.8826 1.75736 29.7574C2.88258 28.6321 4.4087 28 6 28H34ZM40 34V35.43C40 35.964 39.954 36.488 39.86 37H20V34H40ZM39.258 39H20V42H37.268C38.122 41.078 38.794 40.072 39.258 39ZM31.908 10.5C32.0321 11.4961 32.0321 12.5038 31.908 13.5H20V10.5H31.908ZM31.482 8.5C31.1587 7.4402 30.6895 6.43052 30.088 5.5H20V8.5H31.48H31.482ZM20 1.20253e-08C23.306 1.20253e-08 26.3 1.338 28.47 3.5H20V3C17.6131 3 15.3239 3.94821 13.636 5.63604C11.9482 7.32386 11 9.61305 11 12C11 14.3869 11.9482 16.6761 13.636 18.364C15.3239 20.0518 17.6131 21 20 21V20.5H28.47C27.0728 21.8924 25.3539 22.9189 23.4654 23.4886C21.5769 24.0583 19.5771 24.1537 17.6429 23.7663C15.7088 23.379 13.9 22.5208 12.3765 21.2677C10.8531 20.0147 9.66206 18.4054 8.90882 16.5823C8.15558 14.7593 7.86337 12.7786 8.05805 10.8157C8.25273 8.85276 8.92829 6.9681 10.0249 5.32849C11.1216 3.68889 12.6055 2.3449 14.3454 1.4155C16.0853 0.486086 18.0274 -8.82862e-05 20 1.20253e-08V1.20253e-08ZM30.088 18.5H20V15.5H31.48C31.156 16.572 30.684 17.58 30.088 18.5Z"/>
</symbol><symbol id="user-add" viewBox="0 0 512 512" enable-background="new 0 0 512 512" xml:space="preserve" xmlns="http://www.w3.org/2000/svg">
<g>
	<path d="M256,0C114.609,0,0,114.609,0,256s114.609,256,256,256s256-114.609,256-256S397.391,0,256,0z M256,472   c-119.297,0-216-96.703-216-216S136.703,40,256,40s216,96.703,216,216S375.297,472,256,472z"/>
	<path d="M325.906,306.188c-16-2.734-37.906-18.25-37.906-24.984v-17.016c0-6.344,8.594-18.219,12.25-29.156   c0.344-1.031,2.547,0.156,4.688-2.438c4.031-4.969,4.625-12.531,5.547-15.969c1.469-5.406-5.094-5.625-5.094-5.625   s4.891-28.375,0.547-46.281c-5.875-24.406-37.5-36.719-49.875-36.719s-43.969,12.312-49.875,36.719   c-4.328,17.906,0.656,46.281,0.656,46.281s-6.312,0.219-4.875,5.625c0.938,3.438,1.984,11,6.031,15.969   c2.125,2.594,3.422,1.406,3.766,2.438C215.406,245.969,224,257.844,224,264.188v17.016c0,6.734-21.922,22.25-37.922,24.984   c-20.547,3.5-30.703,17.703-25.891,53.125c2.406,17.688,49.094,25.297,95.344,24.641c46.25,0.656,93.641-6.953,96.047-24.641   C356.406,323.891,346.469,309.688,325.906,306.188z"/>
	<rect x="336" y="176" width="48" height="16"/>
	<rect x="352" y="160" width="16" height="48"/>
</g>
</symbol></svg>