<svg width="280" height="280" viewBox="0 0 280 280" fill="none" xmlns="http://www.w3.org/2000/svg">
<path fill-rule="evenodd" clip-rule="evenodd" d="M139.465 279.999L139.59 279.999H139.547L139.465 279.999ZM140.453 279.999H140.41L140.535 279.999L140.453 279.999ZM139.038 279.997L139.173 279.997H139.095L139.038 279.997ZM140.905 279.997H140.827L140.963 279.997L140.905 279.997ZM138.625 279.993L138.715 279.994L138.643 279.993H138.625ZM141.357 279.993L141.285 279.994L141.375 279.993H141.357ZM141.809 279.989L141.777 279.989L141.899 279.987L141.809 279.989ZM138.101 279.987L138.223 279.989L138.191 279.989L138.101 279.987ZM142.26 279.982L142.186 279.983L142.336 279.981L142.26 279.982ZM137.664 279.981L137.814 279.983L137.74 279.982L137.664 279.981ZM142.71 279.974L142.611 279.976L142.75 279.973L142.71 279.974ZM137.25 279.973L137.389 279.976L137.29 279.974L137.25 279.973ZM136.738 279.963L136.861 279.966L136.839 279.965L136.738 279.963ZM143.161 279.965L143.139 279.966L143.262 279.963L143.161 279.965ZM136.288 279.951L136.457 279.956L136.389 279.954L136.288 279.951ZM143.611 279.954L143.543 279.956L143.712 279.951L143.611 279.954ZM144.061 279.942L143.951 279.945L144.124 279.94L144.061 279.942ZM135.876 279.94L136.049 279.945L135.939 279.942L135.876 279.94ZM135.482 279.928L135.605 279.932L135.489 279.928L135.383 279.925L135.482 279.928ZM144.511 279.928L144.395 279.932L144.518 279.928L144.617 279.925L144.511 279.928ZM144.96 279.914L144.898 279.916L145.087 279.909L144.96 279.914ZM134.913 279.909L135.102 279.916L135.04 279.914L134.913 279.909ZM134.503 279.894L134.701 279.901L134.591 279.897L134.503 279.894ZM145.409 279.897L145.299 279.901L145.497 279.894L145.409 279.897ZM134.101 279.878L134.295 279.886L134.144 279.88L134.101 279.878ZM145.856 279.88L145.705 279.886L145.899 279.878L145.856 279.88ZM133.538 279.853L133.746 279.862L133.695 279.861L133.538 279.853ZM146.305 279.861L146.254 279.862L146.462 279.853L146.305 279.861ZM133.134 279.834L133.349 279.844L133.248 279.84L133.134 279.834ZM146.752 279.84L146.651 279.844L146.866 279.834L146.752 279.84ZM132.736 279.814L132.953 279.825L132.8 279.818L132.736 279.814ZM147.2 279.818L147.047 279.825L147.264 279.814L147.2 279.818ZM147.647 279.794L147.449 279.805L147.625 279.795L147.831 279.784L147.647 279.794ZM132.375 279.795L132.551 279.805L132.353 279.794L132.169 279.784L132.375 279.795ZM148.093 279.769L148.006 279.774L148.228 279.762L148.093 279.769ZM131.772 279.762L131.994 279.774L131.907 279.769L131.772 279.762ZM131.377 279.738L131.599 279.751L131.461 279.744L131.377 279.738ZM148.539 279.744L148.401 279.751L148.623 279.738L148.539 279.744ZM131.001 279.715L131.2 279.727L131.014 279.716L130.827 279.704L131.001 279.715ZM148.986 279.716L148.8 279.727L148.999 279.715L149.173 279.704L148.986 279.716ZM149.431 279.687L149.364 279.691L149.576 279.677L149.431 279.687ZM130.424 279.677L130.636 279.691L130.569 279.687L130.424 279.677ZM130.03 279.649L130.238 279.664L130.124 279.657L130.03 279.649ZM149.876 279.657L149.762 279.664L149.97 279.649L149.876 279.657ZM129.637 279.622L129.828 279.635L129.679 279.625L129.637 279.622ZM150.321 279.625L150.172 279.635L150.363 279.622L150.321 279.625ZM129.108 279.582L129.275 279.594L129.235 279.591L129.108 279.582ZM150.765 279.591L150.725 279.594L150.892 279.582L150.765 279.591ZM151.209 279.557L151.129 279.563L151.299 279.549L151.209 279.557ZM128.701 279.549L128.871 279.563L128.791 279.557L128.701 279.549ZM128.305 279.517L128.449 279.529L128.347 279.521L128.305 279.517ZM151.653 279.521L151.551 279.529L151.695 279.517L151.653 279.521ZM127.868 279.48L127.911 279.484L127.904 279.484L127.868 279.48ZM152.096 279.484L152.089 279.484L152.132 279.48L152.096 279.484ZM152.539 279.445L152.499 279.448L152.598 279.439L152.539 279.445ZM127.402 279.439L127.501 279.448L127.461 279.445L127.402 279.439ZM126.991 279.402L127.065 279.409L127.019 279.405L126.991 279.402ZM152.981 279.405L152.935 279.409L153.009 279.402L152.981 279.405ZM118.125 278.298C51.2318 267.783 0 209.827 0 140C0 62.732 62.732 0 140 0C217.268 0 280 62.732 280 140C280 209.827 228.768 267.783 161.875 278.298V180.469H194.496L200.703 140H161.875V113.739C161.875 102.667 167.299 91.875 184.69 91.875H202.344V57.4219C202.344 57.4219 186.323 54.6875 171.005 54.6875C139.026 54.6875 118.125 74.0688 118.125 109.156V140H82.5781V180.469H118.125V278.298Z" fill="white"/>
</svg>
