<svg width="66" height="45" viewBox="0 0 66 45" fill="none" xmlns="http://www.w3.org/2000/svg">
<path d="M33.678 38.6916V21.238L28.5478 27.0841L28.3768 35.2602L33.849 44.7495H45.905C57.6618 44.3316 66.1383 34.3936 65.9983 22.4242C65.8529 9.94453 57.9791 0.816814 45.8452 0.691963C41.0036 0.63768 26.9233 0.69222 26.9233 0.69222C26.9233 0.69222 30.9419 2.25933 33.2505 6.1568H44.6225C52.5178 6.79734 58.124 10.9508 59.842 18.0185C60.9536 25.4319 59.8421 29.6259 53.4721 36.1075C46.8456 40.0472 40.2618 38.6916 33.678 38.6916Z" fill="url(#paint0_linear_2_238)"/>
<path d="M6.10323 45V29.2933H16.3077L25.4021 44.9108H32.9594C32.9594 44.9108 26.8261 33.6491 23.6322 28.1537C24.5813 27.6457 25.9632 27.0134 26.7257 26.5919C32.7617 23.2633 35.2956 16.8951 33.7279 10.5946C32.0696 3.92112 25.1252 0.0691702 18.0707 0.00973074C13.8956 -0.0226908 9.71521 0.0367492 5.54012 0.0313456H2.64481V7.30222H4.35267C8.43712 7.18334 14.5663 7.25899 18.656 7.30222C24.1535 7.36166 27.2954 9.17421 27.3274 14.3076C27.3594 19.2195 23.2163 22.4759 17.7988 22.5191C12.7332 22.5624 7.66765 22.6326 2.60209 22.5408H0.0106585V25.0724L0 25.7794C0.12264 31.183 0.207949 36.5974 0.0106585 41.9956L0 45H6.10323Z" fill="url(#paint1_linear_2_238)"/>
<defs>
<linearGradient id="paint0_linear_2_238" x1="1.76907" y1="15.9851" x2="66" y2="15.9851" gradientUnits="userSpaceOnUse">
<stop stop-color="white" stop-opacity="0"/>
<stop offset="0.514607" stop-color="white" stop-opacity="0.69"/>
<stop offset="1" stop-color="white"/>
</linearGradient>
<linearGradient id="paint1_linear_2_238" x1="1.76907" y1="15.9851" x2="66" y2="15.9851" gradientUnits="userSpaceOnUse">
<stop stop-color="white" stop-opacity="0"/>
<stop offset="0.514607" stop-color="white" stop-opacity="0.69"/>
<stop offset="1" stop-color="white"/>
</linearGradient>
</defs>
</svg>
