<svg width="278" height="278" viewBox="0 0 278 278" fill="none" xmlns="http://www.w3.org/2000/svg">
<g clip-path="url(#clip0_249_75)">
<path d="M139 0C62.2324 0 0 62.2324 0 139C0 215.768 62.2324 278 139 278C215.768 278 278 215.768 278 139C278 62.2324 215.768 0 139 0ZM211.247 87.9262L186.559 205.785C186.26 207.211 185.608 208.538 184.663 209.646C183.717 210.754 182.508 211.606 181.147 212.125C179.786 212.643 178.317 212.811 176.874 212.614C175.431 212.416 174.06 211.859 172.889 210.994L136.979 184.464L115.223 204.988C114.939 205.257 114.603 205.466 114.237 205.604C113.87 205.741 113.48 205.804 113.089 205.79C112.697 205.775 112.313 205.682 111.958 205.517C111.603 205.352 111.284 205.118 111.021 204.828L110.553 204.315L114.333 167.732L182.467 105.48C182.804 105.173 183.014 104.751 183.055 104.296C183.095 103.842 182.964 103.389 182.688 103.027C182.411 102.664 182.008 102.419 181.559 102.338C181.11 102.258 180.648 102.349 180.262 102.593L93.1273 157.743L55.6 145.139C54.6022 144.804 53.7325 144.168 53.1103 143.319C52.4881 142.47 52.1439 141.449 52.1249 140.397C52.1058 139.345 52.4129 138.312 53.004 137.441C53.5951 136.57 54.4412 135.903 55.4263 135.532L202.256 80.2204C203.388 79.7942 204.615 79.68 205.807 79.8899C206.998 80.0998 208.112 80.626 209.031 81.4136C209.95 82.2011 210.64 83.221 211.03 84.3667C211.42 85.5123 211.495 86.7417 211.247 87.9262Z" fill="white"/>
</g>
<defs>
<clipPath id="clip0_249_75">
<rect width="278" height="278" fill="white"/>
</clipPath>
</defs>
</svg>
